# Blender v2.76 (sub 0) OBJ File: 'cooker.blend'
# www.blender.org
mtllib cooker.mtl
o Circle
v 0.752164 0.000000 0.130073
v 0.246018 0.000000 0.130826
v 0.130073 0.000000 0.247836
v 0.130826 0.000000 0.753982
v 0.247836 0.000000 0.869927
v 0.753982 0.000000 0.869174
v 0.869927 0.000000 0.752164
v 0.869174 0.000000 0.246018
v 0.817327 0.058479 0.034478
v 0.180385 0.058479 0.035426
v 0.034478 0.058479 0.182673
v 0.035426 0.058479 0.819615
v 0.182673 0.058479 0.965522
v 0.819615 0.058479 0.964574
v 0.965522 0.058479 0.817327
v 0.964574 0.058479 0.180385
v 0.817327 0.658479 0.034478
v 0.180385 0.658479 0.035426
v 0.034478 0.658479 0.182673
v 0.035426 0.658479 0.819615
v 0.182673 0.658479 0.965522
v 0.819615 0.658479 0.964574
v 0.965522 0.658479 0.817327
v 0.964574 0.658479 0.180385
v 0.768292 0.658479 0.106412
v 0.229773 0.658479 0.107214
v 0.106412 0.658479 0.231708
v 0.107214 0.658479 0.770227
v 0.231708 0.658479 0.893588
v 0.770227 0.658479 0.892786
v 0.893588 0.658479 0.768292
v 0.892786 0.658479 0.229773
v 0.768292 0.116305 0.106412
v 0.229773 0.116305 0.107214
v 0.106412 0.116305 0.231708
v 0.107214 0.116305 0.770227
v 0.231708 0.116305 0.893588
v 0.770227 0.116305 0.892786
v 0.893588 0.116305 0.768292
v 0.892786 0.116305 0.229773
v 0.721825 0.078010 0.174579
v 0.276575 0.078010 0.175242
v 0.174579 0.078010 0.278175
v 0.175242 0.078010 0.723425
v 0.278175 0.078010 0.825421
v 0.723425 0.078010 0.824758
v 0.825421 0.078010 0.721825
v 0.824758 0.078010 0.276575
vt 0.268866 0.330793
vt 0.293373 0.368644
vt 0.055021 0.368644
vt 0.079459 0.330793
vt 0.035737 0.284770
vt 0.000000 0.310727
vt 0.000000 0.058275
vt 0.035737 0.084159
vt 0.079190 0.037850
vt 0.054682 0.000000
vt 0.293035 0.000000
vt 0.268597 0.037850
vt 0.348055 0.057917
vt 0.312319 0.083874
vt 0.312319 0.284485
vt 0.348055 0.310369
vt 0.866856 0.058275
vt 0.642328 0.058275
vt 0.642328 0.000000
vt 0.866855 0.000000
vt 0.572583 0.680682
vt 0.348055 0.680682
vt 0.348055 0.622406
vt 0.572583 0.622406
vt 0.797111 0.369955
vt 0.572583 0.369955
vt 0.572583 0.311680
vt 0.797111 0.311679
vt 0.348055 0.369955
vt 0.348055 0.311680
vt 0.572583 0.933133
vt 0.348055 0.933133
vt 0.797111 0.622406
vt 0.866856 0.310727
vt 0.642328 0.310727
vt 0.000000 0.679013
vt 0.000000 0.426561
vt 0.026892 0.446094
vt 0.026892 0.659535
vt 0.293035 0.737288
vt 0.054682 0.737288
vt 0.073124 0.708806
vt 0.274645 0.708806
vt 0.348055 0.679371
vt 0.321164 0.659838
vt 0.348055 0.426919
vt 0.321164 0.446397
vt 0.274931 0.397126
vt 0.073410 0.397126
vt 0.775472 0.835848
vt 0.775472 0.622406
vt 0.978361 0.622406
vt 0.978361 0.835848
vt 0.797111 0.525121
vt 1.000000 0.311679
vt 1.000000 0.525121
vt 0.572583 0.835848
vt 0.000000 0.950730
vt 0.000000 0.737288
vt 0.202889 0.737288
vt 0.202889 0.950730
vt 0.000000 1.000000
vt 0.202889 1.000000
vt 0.775472 0.885118
vt 0.978361 0.885118
vt 0.797111 0.574392
vt 1.000000 0.574391
vt 0.572583 0.885119
vt 0.394288 0.311679
vt 0.348055 0.262409
vt 0.373538 0.243952
vt 0.411764 0.284689
vt 0.642328 0.262712
vt 0.595809 0.311679
vt 0.578383 0.284689
vt 0.616844 0.244202
vt 0.394574 0.000000
vt 0.596095 0.000000
vt 0.578619 0.026990
vt 0.412000 0.026990
vt 0.348055 0.048967
vt 0.373538 0.067477
vt 0.642328 0.049270
vt 0.616844 0.067728
vn 0.000800 -0.852800 0.522200
vn -0.522200 -0.852800 0.000800
vn -0.000800 -0.852800 -0.522200
vn 0.321800 -0.889400 -0.324700
vn 0.324700 -0.889400 0.321800
vn -0.321800 -0.889400 0.324700
vn -0.324700 -0.889400 -0.321800
vn 0.522200 -0.852800 -0.000800
vn 0.703900 0.000000 -0.710300
vn 0.710300 0.000000 0.703900
vn -0.703900 0.000000 0.710300
vn -0.710300 0.000000 -0.703900
vn 1.000000 0.000000 -0.001500
vn 0.001500 0.000000 1.000000
vn -1.000000 0.000000 0.001500
vn -0.001500 0.000000 -1.000000
vn 0.000000 -1.000000 0.000000
vn 0.000000 1.000000 0.000000
vn 0.300500 0.904300 -0.303200
vn 0.303200 0.904300 0.300500
vn -0.490200 0.871600 0.000700
vn -0.000700 0.871600 -0.490200
vn 0.490200 0.871600 -0.000700
vn 0.000700 0.871600 0.490200
vn -0.300500 0.904300 0.303200
vn -0.303200 0.904300 -0.300500
usemtl None
s off
f 6/1/1 14/2/1 13/3/1 5/4/1
f 4/5/2 12/6/2 11/7/2 3/8/2
f 2/9/3 10/10/3 9/11/3 1/12/3
f 1/12/4 9/11/4 16/13/4 8/14/4
f 7/15/5 15/16/5 14/2/5 6/1/5
f 5/4/6 13/3/6 12/6/6 4/5/6
f 3/8/7 11/7/7 10/10/7 2/9/7
f 8/14/8 16/13/8 15/16/8 7/15/8
f 9/17/9 17/18/9 24/19/9 16/20/9
f 15/21/10 23/22/10 22/23/10 14/24/10
f 13/25/11 21/26/11 20/27/11 12/28/11
f 11/26/12 19/29/12 18/30/12 10/27/12
f 16/31/13 24/32/13 23/22/13 15/21/13
f 14/33/14 22/24/14 21/26/14 13/25/14
f 12/24/15 20/23/15 19/29/15 11/26/15
f 10/34/16 18/35/16 17/18/16 9/17/16
f 7/15/17 5/4/17 1/12/17
f 19/36/18 20/37/18 28/38/18 27/39/18
f 17/40/18 18/41/18 26/42/18 25/43/18
f 24/44/18 17/40/18 25/43/18 32/45/18
f 22/2/18 23/46/18 31/47/18 30/48/18
f 20/37/18 21/3/18 29/49/18 28/38/18
f 18/41/18 19/36/18 27/39/18 26/42/18
f 23/46/18 24/44/18 32/45/18 31/47/18
f 21/3/18 22/2/18 30/48/18 29/49/18
f 31/50/15 32/51/15 40/52/15 39/53/15
f 29/54/16 30/28/16 38/55/16 37/56/16
f 27/57/13 28/24/13 36/51/13 35/50/13
f 25/58/14 26/59/14 34/60/14 33/61/14
f 32/62/11 25/58/11 33/61/11 40/63/11
f 30/64/12 31/50/12 39/53/12 38/65/12
f 28/66/9 29/54/9 37/56/9 36/67/9
f 26/68/10 27/57/10 35/50/10 34/64/10
f 36/69/19 37/70/19 45/71/19 44/72/19
f 34/73/20 35/74/20 43/75/20 42/76/20
f 39/77/21 40/78/21 48/79/21 47/80/21
f 37/70/22 38/81/22 46/82/22 45/71/22
f 35/74/23 36/69/23 44/72/23 43/75/23
f 33/83/24 34/73/24 42/76/24 41/84/24
f 40/78/25 33/83/25 41/84/25 48/79/25
f 38/81/26 39/77/26 47/80/26 46/82/26
f 45/71/18 47/80/18 41/84/18
f 3/8/17 2/9/17 1/12/17
f 1/12/17 8/14/17 7/15/17
f 7/15/17 6/1/17 5/4/17
f 5/4/17 4/5/17 3/8/17
f 3/8/17 1/12/17 5/4/17
f 41/84/18 42/76/18 43/75/18
f 43/75/18 44/72/18 45/71/18
f 45/71/18 46/82/18 47/80/18
f 47/80/18 48/79/18 41/84/18
f 41/84/18 43/75/18 45/71/18
