# Blender v2.76 (sub 0) OBJ File: 'grindstone.blend'
# www.blender.org
mtllib grindstone.mtl
o Cube_Cube.002
v 0.502198 0.001208 0.050000
v 0.502198 0.201208 0.050000
v 0.727198 0.001208 0.110289
v 0.727198 0.201208 0.110289
v 0.891909 0.001208 0.275000
v 0.891909 0.201208 0.275000
v 0.952198 0.001208 0.500000
v 0.952198 0.201208 0.500000
v 0.891909 0.001208 0.725000
v 0.891909 0.201208 0.725000
v 0.727198 0.001208 0.889711
v 0.727198 0.201208 0.889711
v 0.502198 0.001208 0.950000
v 0.502198 0.201208 0.950000
v 0.277198 0.001208 0.889711
v 0.277198 0.201208 0.889711
v 0.112487 0.001208 0.725000
v 0.112487 0.201208 0.725000
v 0.052198 0.001208 0.500000
v 0.052198 0.201208 0.500000
v 0.112486 0.001208 0.275000
v 0.112486 0.201208 0.275000
v 0.277198 0.001208 0.110289
v 0.277198 0.201208 0.110289
vt 0.715699 0.309793
vt 0.715699 0.704834
vt 0.590621 0.704834
vt 0.590621 0.309793
vt 0.462967 0.704834
vt 0.462967 0.309793
vt 0.337845 0.704834
vt 0.337845 0.309793
vt 0.221878 0.704834
vt 0.221878 0.309793
vt 0.128472 0.704834
vt 0.128472 0.309793
vt 0.096231 0.704834
vt 0.096231 0.309793
vt 0.271918 0.704834
vt 0.271918 0.309793
vt 0.777321 0.704834
vt 0.777321 0.309793
vt 0.956042 0.704834
vt 0.956042 0.309793
vt 0.924664 0.704834
vt 0.924664 0.309793
vt 0.079988 0.744670
vt 0.500753 0.015884
vt 0.921518 0.744670
vt 0.831548 0.309793
vt 0.831548 0.704834
vt 0.986610 0.501741
vt 0.257824 0.080977
vt 0.743681 0.922506
vt 0.500753 0.987599
vt 0.257824 0.922506
vt 0.014896 0.501741
vt 0.079988 0.258812
vt 0.743681 0.080977
vt 0.921518 0.258813
vn 0.258800 0.000000 -0.965900
vn 0.707100 0.000000 -0.707100
vn 0.965900 0.000000 -0.258800
vn 0.965900 0.000000 0.258800
vn 0.707100 0.000000 0.707100
vn 0.258800 0.000000 0.965900
vn -0.258800 0.000000 0.965900
vn -0.707100 0.000000 0.707100
vn -0.965900 0.000000 0.258800
vn -0.965900 0.000000 -0.258800
vn 0.000000 1.000000 0.000000
vn -0.258800 0.000000 -0.965900
vn -0.707100 0.000000 -0.707100
vn 0.000000 -1.000000 0.000000
usemtl None
s off
f 1/1/1 2/2/1 4/3/1 3/4/1
f 3/4/2 4/3/2 6/5/2 5/6/2
f 5/6/3 6/5/3 8/7/3 7/8/3
f 7/8/4 8/7/4 10/9/4 9/10/4
f 9/10/5 10/9/5 12/11/5 11/12/5
f 11/12/6 12/11/6 14/13/6 13/14/6
f 13/14/7 14/13/7 16/15/7 15/16/7
f 15/16/8 16/15/8 18/17/8 17/18/8
f 17/18/9 18/17/9 20/19/9 19/20/9
f 19/20/10 20/19/10 22/21/10 21/22/10
f 22/23/11 14/24/11 6/25/11
f 23/26/12 24/27/12 2/2/12 1/1/12
f 21/22/13 22/21/13 24/27/13 23/26/13
f 7/28/14 15/29/14 3/30/14
f 6/25/11 4/30/11 2/31/11
f 2/31/11 24/32/11 22/23/11
f 22/23/11 20/33/11 18/34/11
f 18/34/11 16/29/11 14/24/11
f 14/24/11 12/35/11 6/25/11
f 10/36/11 8/28/11 6/25/11
f 6/25/11 2/31/11 22/23/11
f 22/23/11 18/34/11 14/24/11
f 12/35/11 10/36/11 6/25/11
f 23/32/14 1/31/14 3/30/14
f 3/30/14 5/25/14 7/28/14
f 7/28/14 9/36/14 11/35/14
f 11/35/14 13/24/14 15/29/14
f 15/29/14 17/34/14 23/32/14
f 19/33/14 21/23/14 23/32/14
f 23/32/14 3/30/14 15/29/14
f 7/28/14 11/35/14 15/29/14
f 17/34/14 19/33/14 23/32/14
